<?xml version="1.0" encoding="UTF-8" standalone="no"?>
<!-- Created with Inkscape (http://www.inkscape.org/) -->

<svg
   width="40.000546mm"
   height="39.010006mm"
   viewBox="0 0 40.000546 39.010006"
   version="1.1"
   id="svg1"
   xml:space="preserve"
   sodipodi:docname="LegoCape.svg"
   xmlns:inkscape="http://www.inkscape.org/namespaces/inkscape"
   xmlns:sodipodi="http://sodipodi.sourceforge.net/DTD/sodipodi-0.dtd"
   xmlns="http://www.w3.org/2000/svg"
   xmlns:svg="http://www.w3.org/2000/svg"><sodipodi:namedview
     id="namedview1"
     pagecolor="#ffffff"
     bordercolor="#000000"
     borderopacity="0.25"
     inkscape:showpageshadow="2"
     inkscape:pageopacity="0.0"
     inkscape:pagecheckerboard="0"
     inkscape:deskcolor="#d1d1d1"
     inkscape:document-units="mm"
     inkscape:zoom="0.27874322"
     inkscape:cx="-114.801"
     inkscape:cy="468.17282"
     inkscape:window-width="1920"
     inkscape:window-height="1129"
     inkscape:window-x="-8"
     inkscape:window-y="-8"
     inkscape:window-maximized="1"
     inkscape:current-layer="layer1"><inkscape:page
       x="0"
       y="0"
       width="40.000546"
       height="39.010006"
       id="page2"
       margin="0"
       bleed="0" /></sodipodi:namedview><defs
     id="defs1" /><g
     inkscape:label="Layer 1"
     inkscape:groupmode="layer"
     id="layer1"
     transform="translate(-9.9690447,-11.680417)"><path
       style="fill:none;stroke:#ff0000;stroke-width:0.01;stroke-dasharray:none;stroke-opacity:1"
       d="m 26.04219,50.656133 c -1.01339,-0.0765 -1.72795,-0.17073 -4.31916,-0.56948 -2.43145,-0.37416 -2.80894,-0.44553 -4.50858,-0.85249 -2.30337,-0.55151 -4.40361,-1.21818 -5.93395,-1.8836 -0.97515,-0.424 -1.14286,-0.51647 -1.22912,-0.67764 -0.1027199,-0.19193 -0.1031699,-0.91846 -10e-4,-1.71885 0.0569,-0.44596 0.11301,-0.844 0.12472,-0.88454 0.0117,-0.0405 0.0764,-0.39436 0.14384,-0.78626 0.0674,-0.3919 0.16849,-0.97792 0.22462,-1.30225 0.0561,-0.32433 0.22382,-1.08725 0.37263,-1.69537 0.14881,-0.60813 0.30488,-1.24942 0.34683,-1.4251 0.0419,-0.17568 0.11772,-0.47421 0.1684,-0.66341 0.0507,-0.18919 0.13606,-0.5209 0.18973,-0.73712 0.085,-0.34242 0.30925,-1.10634 0.5626,-1.91651 0.0423,-0.13514 0.19721,-0.65481 0.34433,-1.154817 0.39124,-1.329665 0.80729,-2.723471 0.93879,-3.145045 0.0632,-0.202706 0.17442,-0.56758 0.24709,-0.81083 0.2904,-0.972025 1.91875,-5.781649 2.06555,-6.100948 0.0392,-0.08517 0.0712,-0.168031 0.0712,-0.184141 0,-0.100792 0.56362,-1.515213 1.01046,-2.535774 0.28993,-0.662179 0.60061,-1.375369 0.69041,-1.584868 0.19657,-0.45861 1.00392,-2.203443 1.0516,-2.272724 0.0186,-0.02703 0.41479,-0.797031 0.8804,-1.711118 0.86331,-1.694814 1.28857,-2.430541 1.64581,-2.847302 0.19239,-0.224447 0.72253,-0.551541 1.15883,-0.714992 0.19874,-0.07446 1.30569,-0.32092 1.91651,-0.426714 1.0575,-0.183159 2.31186,-0.368823 2.49178,-0.368823 0.27343,0 0.56795,0.244026 1.22114,1.011767 0.62133,0.730298 0.74558,0.807913 1.36334,0.851617 0.27902,0.01974 0.44677,0.05383 0.4729,0.09611 0.0223,0.03604 0.046,1.251826 0.0528,2.701752 0.0284,6.073894 0.0586,5.358645 -0.22991,5.456436 -0.35942,0.121836 -0.66969,0.393244 -0.83545,0.730804 -0.11934,0.243013 -0.13834,0.33978 -0.13741,0.699715 9.3e-4,0.336263 0.0225,0.458167 0.1109,0.625247 0.4755,0.898597 1.66961,1.096741 2.35988,0.39158 0.44136,-0.450882 0.55769,-1.120232 0.28958,-1.666201 -0.16957,-0.345307 -0.49929,-0.644512 -0.83206,-0.755039 -0.24959,-0.0829 -0.24959,-0.0829 -0.2175,-3.651393 0.0176,-1.96267 0.0322,-3.771473 0.0324,-4.019561 3.7e-4,-0.45107 3.7e-4,-0.45107 0.26583,-0.528269 0.14606,-0.04246 0.33055,-0.0772 0.40997,-0.0772 0.28552,0 0.53938,-0.198838 1.05908,-0.82955 0.37235,-0.451889 0.57604,-0.654169 0.79174,-0.78626 0.28974,-0.177435 0.29174,-0.177847 0.85997,-0.177847 0.74189,0 1.7767,0.09443 2.36322,0.215661 0.9438,0.19507 1.67148,0.393936 1.97437,0.539565 0.30176,0.145084 0.74093,0.472245 0.85583,0.637544 0.1729,0.248742 1.33108,2.242418 1.59196,2.740364 0.82737,1.579249 1.64362,3.206201 1.90809,3.803185 0.89877,2.028859 1.07958,2.447515 1.34369,3.111297 0.53717,1.350059 1.41078,3.749702 1.70292,4.677599 0.11063,0.35136 0.3766,1.191675 0.59105,1.86737 0.3652,1.150675 0.48535,1.561841 0.99445,3.403034 0.11023,0.398658 0.29552,1.067594 0.41174,1.486525 0.8656,3.120014 0.84035,3.022354 1.38252,5.345914 0.28853,1.23653 0.31399,1.37023 0.69917,3.67152 0.28263,1.68865 0.44896,2.99098 0.40481,3.16961 -0.0239,0.0969 -0.13906,0.17663 -0.54483,0.37738 -0.28295,0.14 -0.69137,0.33171 -0.90759,0.42603 -0.21622,0.0943 -0.67119,0.29327 -1.01103,0.44212 -0.44177,0.19349 -1.13512,0.41843 -2.43249,0.78916 -0.99803,0.2852 -2.07996,0.59705 -2.4043,0.693 -0.74112,0.21925 -0.96766,0.26793 -2.62906,0.56496 -1.56529,0.27985 -1.98221,0.35009 -2.9239,0.49261 -0.37839,0.0573 -0.78749,0.12299 -0.90912,0.14604 -0.3699,0.0701 -1.32409,0.1445 -2.9239,0.2279 -1.65522,0.0863 -6.39863,0.13133 -7.22904,0.0686 z M 25.44594,20.160712 c 0.12864,-0.01603 0.40665,-0.115627 0.61781,-0.221313 0.50077,-0.250642 0.88106,-0.642922 1.12918,-1.164778 0.17902,-0.376526 0.18134,-0.389297 0.18134,-0.995685 0,-0.613732 -1.6e-4,-0.614605 -0.1908,-1.004844 -0.42079,-0.861342 -1.20049,-1.354115 -2.14968,-1.358614 -0.49877,-0.0024 -0.74609,0.0552 -1.14791,0.267172 -0.87667,0.462473 -1.4057,1.511269 -1.25138,2.480846 0.11735,0.737268 0.63104,1.45243 1.27777,1.778901 0.32296,0.163027 0.88804,0.29224 1.15236,0.2635 0.0811,-0.0088 0.25268,-0.02915 0.38131,-0.04519 z m 10.37498,-0.07396 c 1.14299,-0.353033 1.87606,-1.593069 1.63644,-2.768112 -0.10576,-0.518611 -0.29782,-0.884105 -0.65519,-1.246862 -0.53884,-0.546954 -1.31596,-0.817018 -2.04124,-0.709372 -1.57595,0.233905 -2.52209,1.934026 -1.8819,3.381594 0.29874,0.675512 0.95494,1.229007 1.65249,1.393852 0.32965,0.0779 0.95153,0.05326 1.2894,-0.0511 z"
       id="path3"
       sodipodi:nodetypes="cssssccsssssssssssssssssssssssssscsssssccssssssssssssssssssssssssssccssssssssssssssssss"
       inkscape:export-filename="..\Desktop\StandardCape.svg"
       inkscape:export-xdpi="96"
       inkscape:export-ydpi="96" /></g></svg>
